<svg xmlns="http://www.w3.org/2000/svg" xmlns:xlink="http://www.w3.org/1999/xlink" width="700" height="700" viewBox="0 0 700 700"><defs><clipPath id="b"><rect width="700" height="700"/></clipPath></defs><g id="a" clip-path="url(#b)"><g transform="translate(289 71)" fill="#fff" stroke="#f9643d" stroke-width="1"><rect width="108" height="30" rx="10" stroke="none"/><rect x="0.5" y="0.5" width="107" height="29" rx="9.5" fill="none"/></g><g transform="translate(192 585)" fill="#fff" stroke="#f9643d" stroke-width="1"><rect width="108" height="30" rx="10" stroke="none"/><rect x="0.5" y="0.5" width="107" height="29" rx="9.5" fill="none"/></g><g transform="translate(342.939 123.821) rotate(45)" fill="#fff" stroke="#f9643d" stroke-width="1"><rect width="62" height="61" stroke="none"/><rect x="0.5" y="0.5" width="61" height="60" fill="none"/></g><g transform="translate(415.939 276.821) rotate(45)" fill="#fff" stroke="#f9643d" stroke-width="1"><rect width="62" height="61" stroke="none"/><rect x="0.5" y="0.5" width="61" height="60" fill="none"/></g><g transform="translate(171.939 483.821) rotate(45)" fill="#fff" stroke="#f9643d" stroke-width="1"><rect width="62" height="61" stroke="none"/><rect x="0.5" y="0.5" width="61" height="60" fill="none"/></g><g transform="translate(216 224)" fill="none" stroke="#f9643d" stroke-width="1"><rect width="110" height="30" stroke="none"/><rect x="0.5" y="0.5" width="109" height="29" fill="none"/></g><g transform="translate(361 224)" fill="none" stroke="#f9643d" stroke-width="1"><rect width="110" height="30" stroke="none"/><rect x="0.5" y="0.5" width="109" height="29" fill="none"/></g><g transform="translate(216 224)" fill="#fff" stroke="#f9643d" stroke-width="1"><rect width="110" height="30" stroke="none"/><rect x="0.5" y="0.5" width="109" height="29" fill="none"/></g><g transform="translate(287 377)" fill="#fff" stroke="#f9643d" stroke-width="1"><rect width="110" height="30" stroke="none"/><rect x="0.5" y="0.5" width="109" height="29" fill="none"/></g><g transform="translate(432 377)" fill="#fff" stroke="#f9643d" stroke-width="1"><rect width="110" height="30" stroke="none"/><rect x="0.5" y="0.5" width="109" height="29" fill="none"/></g><g transform="translate(117 432)" fill="#fff" stroke="#f9643d" stroke-width="1"><rect width="110" height="30" stroke="none"/><rect x="0.5" y="0.5" width="109" height="29" fill="none"/></g><g transform="translate(361 432)" fill="#fff" stroke="#f9643d" stroke-width="1"><rect width="110" height="30" stroke="none"/><rect x="0.5" y="0.5" width="109" height="29" fill="none"/></g><g transform="translate(326 488)" fill="#fff"><path d="M 110.7695770263672 50.49975204467773 L 0.9305683970451355 50.49975204467773 L 34.23040771484375 0.1921138316392899 L 144.0694274902344 0.1921138316392899 L 110.7695770263672 50.49975204467773 Z" stroke="none"/><path d="M 34.49906921386719 0.6921119689941406 L 1.861160278320313 49.99975204467773 L 110.5009078979492 49.99975204467773 L 143.1388397216797 0.6921119689941406 L 34.49906921386719 0.6921119689941406 M 33.96176147460938 -0.3078880310058594 L 145 -0.3078880310058594 L 111.0382232666016 50.99975204467773 L 0 50.99975204467773 L 33.96176147460938 -0.3078880310058594 Z" stroke="none" fill="#f9643d"/></g><g transform="translate(521 484)" fill="#fff" stroke="#f9643d" stroke-width="1"><rect width="110" height="30" stroke="none"/><rect x="0.5" y="0.5" width="109" height="29" fill="none"/></g><g transform="translate(361 566)" fill="#fff" stroke="#f9643d" stroke-width="1"><rect width="110" height="30" stroke="none"/><rect x="0.5" y="0.5" width="109" height="29" fill="none"/></g><g transform="translate(45 585)" fill="#fff" stroke="#f9643d" stroke-width="1"><rect width="110" height="30" stroke="none"/><rect x="0.5" y="0.5" width="109" height="29" fill="none"/></g><g transform="translate(361 224)" fill="#fff" stroke="#f9643d" stroke-width="1"><rect width="110" height="30" stroke="none"/><rect x="0.5" y="0.5" width="109" height="29" fill="none"/></g><g transform="translate(-24.072 -886.45) rotate(90)"><path d="M1476.67,2242h-18.521" transform="translate(-470 -2609.147)" fill="none" stroke="#e91e63" stroke-width="2"/><path d="M1758,2218l4.9,3.853-4.9,3.854Z" transform="translate(-754.355 -2589)" fill="#e91e63" stroke="#e91e63" stroke-linecap="round" stroke-linejoin="round" stroke-width="2"/></g><g transform="translate(47.928 -733.45) rotate(90)"><path d="M1476.67,2242h-18.521" transform="translate(-470 -2609.147)" fill="none" stroke="#e91e63" stroke-width="2"/><path d="M1758,2218l4.9,3.853-4.9,3.854Z" transform="translate(-754.355 -2589)" fill="#e91e63" stroke="#e91e63" stroke-linecap="round" stroke-linejoin="round" stroke-width="2"/></g><g transform="translate(-195.072 -524.45) rotate(90)"><path d="M1476.67,2242h-18.521" transform="translate(-470 -2609.147)" fill="none" stroke="#e91e63" stroke-width="2"/><path d="M1758,2218l4.9,3.853-4.9,3.854Z" transform="translate(-754.355 -2589)" fill="#e91e63" stroke="#e91e63" stroke-linecap="round" stroke-linejoin="round" stroke-width="2"/></g><g transform="translate(1503.423 47.752) rotate(180)"><path d="M1610.006,2242H1458.148" transform="translate(-603.336 -2609.147)" fill="none" stroke="#e91e63" stroke-width="2"/><path d="M1758,2218l4.9,3.853-4.9,3.854Z" transform="translate(-754.355 -2589)" fill="#e91e63" stroke="#e91e63" stroke-linecap="round" stroke-linejoin="round" stroke-width="2"/></g><g transform="translate(-96.072 -789.45) rotate(90)"><path d="M1476.67,2242h-18.521" transform="translate(-470 -2609.147)" fill="none" stroke="#e91e63" stroke-width="2"/><path d="M1758,2218l4.9,3.853-4.9,3.854Z" transform="translate(-754.355 -2589)" fill="#e91e63" stroke="#e91e63" stroke-linecap="round" stroke-linejoin="round" stroke-width="2"/></g><line x1="56" transform="translate(270.5 199.5)" fill="none" stroke="#e91e63" stroke-width="2"/><g transform="translate(71 153)"><g transform="translate(-96.072 -789.45) rotate(90)"><path d="M1476.67,2242h-18.521" transform="translate(-470 -2609.147)" fill="none" stroke="#e91e63" stroke-width="2"/><path d="M1758,2218l4.9,3.853-4.9,3.854Z" transform="translate(-754.355 -2589)" fill="#e91e63" stroke="#e91e63" stroke-linecap="round" stroke-linejoin="round" stroke-width="2"/></g><line x1="56" transform="translate(270.5 199.5)" fill="none" stroke="#e91e63" stroke-width="2"/></g><g transform="translate(-99 208)"><g transform="translate(-96.072 -789.45) rotate(90)"><path d="M1469.431,2242h-11.282" transform="translate(-462.761 -2609.147)" fill="none" stroke="#e91e63" stroke-width="2"/><path d="M1758,2218l4.9,3.853-4.9,3.854Z" transform="translate(-754.355 -2589)" fill="#e91e63" stroke="#e91e63" stroke-linecap="round" stroke-linejoin="round" stroke-width="2"/></g><line x1="316" transform="translate(270.5 206.5)" fill="none" stroke="#e91e63" stroke-width="2"/><line y2="6" transform="translate(441.5 200.5)" fill="none" stroke="#e91e63" stroke-width="2"/><line y2="6" transform="translate(586.5 201.5)" fill="none" stroke="#e91e63" stroke-width="2"/></g><g transform="translate(-170 347.965)"><g transform="translate(274.928 219.972) rotate(90)"><path d="M21.315,0H0" transform="translate(-10.033 3.853)" fill="none" stroke="#e91e63" stroke-width="2"/><path d="M0,0,4.9,3.853,0,7.707Z" transform="translate(8.257)" fill="#e91e63" stroke="#e91e63" stroke-linecap="round" stroke-linejoin="round" stroke-width="2"/></g><line x1="54.5" transform="translate(270.5 211.028)" fill="none" stroke="#e91e63" stroke-width="2"/></g><g transform="translate(190.221 557.905)"><g transform="translate(57.779) rotate(90)"><path d="M21.315,0H0" transform="translate(0 3.854)" fill="none" stroke="#e91e63" stroke-width="2"/><path d="M0,7.707,4.9,3.854,0,0Z" transform="translate(18.29)" fill="#e91e63" stroke="#e91e63" stroke-linecap="round" stroke-linejoin="round" stroke-width="2"/></g><line x2="54.5" transform="translate(0 1.088)" fill="none" stroke="#e91e63" stroke-width="2"/></g><g transform="translate(361.221 198.699)"><g transform="translate(59.279) rotate(90)"><path d="M18.521,0H0" transform="translate(0 3.854)" fill="none" stroke="#e91e63" stroke-width="2"/><path d="M0,7.707,4.9,3.854,0,0Z" transform="translate(15.496)" fill="#e91e63" stroke="#e91e63" stroke-linecap="round" stroke-linejoin="round" stroke-width="2"/></g><line x2="56" transform="translate(0 0.801)" fill="none" stroke="#e91e63" stroke-width="2"/></g><g transform="translate(432.221 351.699)"><g transform="translate(59.279) rotate(90)"><path d="M18.521,0H0" transform="translate(0 3.854)" fill="none" stroke="#e91e63" stroke-width="2"/><path d="M0,7.707,4.9,3.854,0,0Z" transform="translate(15.496)" fill="#e91e63" stroke="#e91e63" stroke-linecap="round" stroke-linejoin="round" stroke-width="2"/></g><line x2="56" transform="translate(0 0.801)" fill="none" stroke="#e91e63" stroke-width="2"/></g><path d="M1573.953,2242.8h-115.8" transform="translate(2891.879 -1044.45) rotate(90)" fill="none" stroke="#e91e63" stroke-width="2"/><path d="M1592.45,2242.8h-134.3" transform="translate(2737.879 -1011.45) rotate(90)" fill="none" stroke="#e91e63" stroke-width="2"/><path d="M1654.854,2242.8H1458.148" transform="translate(2558.879 -1024.45) rotate(90)" fill="none" stroke="#e91e63" stroke-width="2"/><path d="M1674.576,2242.8H1458.148" transform="translate(-1358.148 -1612.753)" fill="none" stroke="#e91e63" stroke-width="2"/><path d="M1558.985,2243.992H1458.148" transform="translate(-980.225 -1798.143)" fill="none" stroke="#e91e63" stroke-width="2"/><path d="M1476.466,2246.239h-18.318" transform="translate(-980.225 -1664.39)" fill="none" stroke="#e91e63" stroke-width="2"/><path d="M1468.385,2242.8h-10.237" transform="translate(2819.976 -938.883) rotate(90)" fill="none" stroke="#e91e63" stroke-width="2"/><path d="M1470.08,2242.8h-11.932" transform="translate(2342.976 -839.578) rotate(90)" fill="none" stroke="#e91e63" stroke-width="2"/><path d="M1532.027,2242.2h-73.879" transform="translate(-882.148 -1712.693)" fill="none" stroke="#e91e63" stroke-width="2"/><g transform="translate(581.5 459.699) rotate(90)"><path d="M32.314,0H0" transform="translate(-13.792 3.853)" fill="none" stroke="#e91e63" stroke-width="2"/><path d="M0,7.707,4.9,3.854,0,0Z" transform="translate(15.496)" fill="#e91e63" stroke="#e91e63" stroke-linecap="round" stroke-linejoin="round" stroke-width="2"/></g><g transform="translate(419.5 427.699) rotate(90)"><path d="M11.314,0H0" transform="translate(-13.792 3.853)" fill="none" stroke="#e91e63" stroke-width="2"/><path d="M0,7.707,4.9,3.854,0,0Z" transform="translate(-5.504)" fill="#e91e63" stroke="#e91e63" stroke-linecap="round" stroke-linejoin="round" stroke-width="2"/></g><g transform="translate(419.5 476.795) rotate(90)"><path d="M17.218,0H0" transform="translate(-13.792 3.853)" fill="none" stroke="#e91e63" stroke-width="2"/><path d="M0,7.707,4.9,3.854,0,0Z" transform="translate(0.4)" fill="#e91e63" stroke="#e91e63" stroke-linecap="round" stroke-linejoin="round" stroke-width="2"/></g><g transform="translate(419.5 557.795) rotate(90)"><path d="M17.218,0H0" transform="translate(-13.792 3.853)" fill="none" stroke="#e91e63" stroke-width="2"/><path d="M0,7.707,4.9,3.854,0,0Z" transform="translate(0.4)" fill="#e91e63" stroke="#e91e63" stroke-linecap="round" stroke-linejoin="round" stroke-width="2"/></g><g transform="translate(419.5 610.795) rotate(90)"><path d="M17.218,0H0" transform="translate(-13.792 3.853)" fill="none" stroke="#e91e63" stroke-width="2"/><path d="M0,7.707,4.9,3.854,0,0Z" transform="translate(0.4)" fill="#e91e63" stroke="#e91e63" stroke-linecap="round" stroke-linejoin="round" stroke-width="2"/></g><g transform="translate(312.584 426.306) rotate(-90)"><path d="M17.218,0H0" transform="translate(-13.792 3.458)" fill="none" stroke="#e91e63" stroke-width="2"/><path d="M0,6.916,4.9,3.459,0,0Z" transform="translate(0.4)" fill="#e91e63" stroke="#e91e63" stroke-linecap="round" stroke-linejoin="round" stroke-width="2"/></g><text transform="translate(343 91)" fill="#212121" font-size="12" font-family="SegoeUI-Semibold, Segoe UI" font-weight="600"><tspan x="-26.851" y="0">Open app</tspan></text><text transform="translate(343 171)" fill="#212121" font-size="12" font-family="SegoeUI-Semibold, Segoe UI" font-weight="600"><tspan x="-33.923" y="0">Type of User</tspan></text><text transform="translate(271 244)" fill="#212121" font-size="12" font-family="SegoeUI-Semibold, Segoe UI" font-weight="600"><tspan x="-14.959" y="0">Event</tspan></text><text transform="translate(416 244)" fill="#212121" font-size="12" font-family="SegoeUI-Semibold, Segoe UI" font-weight="600"><tspan x="-25.409" y="0">Audience</tspan></text><text transform="translate(415 325)" fill="#212121" font-size="12" font-family="SegoeUI-Semibold, Segoe UI" font-weight="600"><tspan x="-28.734" y="0">Join Room</tspan></text><text transform="translate(342 397)" fill="#212121" font-size="12" font-family="SegoeUI-Semibold, Segoe UI" font-weight="600"><tspan x="-25.521" y="0">Password</tspan></text><text transform="translate(172 451)" fill="#212121" font-size="12" font-family="SegoeUI-Semibold, Segoe UI" font-weight="600"><tspan x="-9.847" y="0">Exit</tspan></text><text transform="translate(172 530)" fill="#212121" font-size="11" font-family="SegoeUI-Semibold, Segoe UI" font-weight="600"><tspan x="-33.806" y="0">Are you sure?</tspan></text><text transform="translate(100 604)" fill="#212121" font-size="12" font-family="SegoeUI-Semibold, Segoe UI" font-weight="600"><tspan x="-8.186" y="0">No</tspan></text><text transform="translate(243 604)" fill="#212121" font-size="12" font-family="SegoeUI-Semibold, Segoe UI" font-weight="600"><tspan x="-26.663" y="0">Close app</tspan></text><text transform="translate(100 604)" fill="#212121" font-size="12" font-family="SegoeUI-Semibold, Segoe UI" font-weight="600"><tspan x="-8.186" y="0">No</tspan></text><text transform="translate(416 586)" fill="#212121" font-size="12" font-family="SegoeUI-Semibold, Segoe UI" font-weight="600"><tspan x="-31.154" y="0">You&apos;re Next</tspan></text><text transform="translate(403 504)" fill="#212121" font-size="12" font-family="SegoeUI-Semibold, Segoe UI" font-weight="600"><tspan x="-39.612" y="0">You have been</tspan><tspan x="-35.027" y="14">added to the</tspan><tspan x="-16.992" y="28">queue</tspan></text><text transform="translate(486 397)" fill="#212121" font-size="12" font-family="SegoeUI-Semibold, Segoe UI" font-weight="600"><tspan x="-24.032" y="0">QR Code</tspan></text><text transform="translate(416 451)" fill="#212121" font-size="12" font-family="SegoeUI-Semibold, Segoe UI" font-weight="600"><tspan x="-50.493" y="0">Submit a Question</tspan></text><text transform="translate(576 504)" fill="#212121" font-size="12" font-family="SegoeUI-Semibold, Segoe UI" font-weight="600"><tspan x="-17.936" y="0">Cancel</tspan></text></g></svg>