<svg xmlns="http://www.w3.org/2000/svg" xmlns:xlink="http://www.w3.org/1999/xlink" width="3385" height="2356" viewBox="0 0 3385 2356"><defs><clipPath id="b"><rect width="3385" height="2356"/></clipPath></defs><g id="a" clip-path="url(#b)"><rect width="3385" height="2356" fill="#fff"/><path d="M2714.664,60.79H2496.07l-97.318.621L2416,86.672l-17.25,24.828,97.318-.2h231.924V60.79Z" transform="translate(599.5 -17.5)" fill="#2e2e2e"/><path d="M2327.26,60.79H2006.044l17.25,25.26-17.25,25.25H2327.26l17.25-25.25Z" transform="translate(659.5 -17.5)" fill="#2e2e2e"/><path d="M335.11,60.79H30.266V111.3H335.11l17.25-25.25Z" transform="translate(628.23 -17.5)" fill="#2e2e2e"/><path d="M541.38,60.79H217.839L235.1,86.05l-17.26,25.25H541.38l17.25-25.25Z" transform="translate(763.5 -17.5)" fill="#2e2e2e"/><path d="M902,60.79H583.174l17.25,25.26-17.25,25.25H902l17.25-25.25Z" transform="translate(738.5 -17.5)" fill="#2e2e2e"/><path d="M902,60.79H583l17.25,25.26L583,111.3H902l17.25-25.25Z" transform="translate(1074.5 -17.5)" fill="#2e2e2e"/><path d="M902,60.79H581.82l17.25,25.26L581.82,111.3H902l17.25-25.25Z" transform="translate(1748.5 -17.5)" fill="#2e2e2e"/><line y1="2181.4" transform="translate(644.5 118.6)" fill="none" stroke="#000" stroke-linecap="round" stroke-miterlimit="10" stroke-width="1" stroke-dasharray="10 10" opacity="0.26"/><line y1="2181.4" transform="translate(982.5 118.6)" fill="none" stroke="#000" stroke-linecap="round" stroke-miterlimit="10" stroke-width="1" stroke-dasharray="10 10" opacity="0.26"/><line y1="2181.4" transform="translate(1319.5 118.6)" fill="none" stroke="#000" stroke-linecap="round" stroke-miterlimit="10" stroke-width="1" stroke-dasharray="10 10" opacity="0.26"/><line y1="2181.4" transform="translate(1657.5 118.6)" fill="none" stroke="#000" stroke-linecap="round" stroke-miterlimit="10" stroke-width="1" stroke-dasharray="10 10" opacity="0.26"/><line y1="2181.4" transform="translate(1993.5 118.6)" fill="none" stroke="#000" stroke-linecap="round" stroke-miterlimit="10" stroke-width="1" stroke-dasharray="10 10" opacity="0.26"/><line y1="2181.4" transform="translate(2329.5 118.6)" fill="none" stroke="#000" stroke-linecap="round" stroke-miterlimit="10" stroke-width="1" stroke-dasharray="10 10" opacity="0.26"/><line y1="2181.4" transform="translate(2667.5 118.6)" fill="none" stroke="#000" stroke-linecap="round" stroke-miterlimit="10" stroke-width="1" stroke-dasharray="10 10" opacity="0.26"/><line y1="2181.4" transform="translate(3004.5 118.6)" fill="none" stroke="#000" stroke-linecap="round" stroke-miterlimit="10" stroke-width="1" stroke-dasharray="10 10" opacity="0.26"/><line y1="2181.4" transform="translate(3342.5 118.6)" fill="none" stroke="#000" stroke-linecap="round" stroke-miterlimit="10" stroke-width="1" stroke-dasharray="10 10" opacity="0.26"/><text transform="translate(694 73.9)" fill="#fff" font-size="18" font-family="SegoeUI-Bold, Segoe UI" font-weight="700" letter-spacing="0.08em"><tspan x="0" y="0">AWA</tspan><tspan y="0" letter-spacing="0.1em">REN</tspan><tspan y="0" letter-spacing="0.09em">E</tspan><tspan y="0" letter-spacing="0.1em">SS</tspan></text><text transform="translate(90 327)" fill="#1e1e1e" font-size="33" font-family="SegoeUI-Bold, Segoe UI" font-weight="700" letter-spacing="0.08em"><tspan x="0" y="0">HIRING MANAGER</tspan></text><text transform="translate(1032.56 73.9)" fill="#fff" font-size="18" font-family="SegoeUI-Bold, Segoe UI" font-weight="700" letter-spacing="0.1em"><tspan x="0" y="0">CREATE JOB</tspan></text><text transform="translate(1372.63 73.9)" fill="#fff" font-size="18" font-family="SegoeUI-Bold, Segoe UI" font-weight="700" letter-spacing="0.1em"><tspan x="0" y="0">CANDIDATE PROFILE</tspan></text><text transform="translate(1708.63 73.9)" fill="#fff" font-size="18" font-family="SegoeUI-Bold, Segoe UI" font-weight="700" letter-spacing="0.1em"><tspan x="0" y="0">CREATE TEST</tspan></text><text transform="translate(2381.63 73.9)" fill="#fff" font-size="18" font-family="SegoeUI-Bold, Segoe UI" font-weight="700" letter-spacing="0.1em"><tspan x="0" y="0">EVALUATION</tspan></text><text transform="translate(2718.66 73.9)" fill="#fff" font-size="18" font-family="SegoeUI-Bold, Segoe UI" font-weight="700" letter-spacing="0.1em"><tspan x="0" y="0">HIRING STAGES</tspan></text><text transform="translate(587.82 300.478) rotate(-90)" font-size="20" font-family="SegoeUI-Bold, Segoe UI" font-weight="700" letter-spacing="0.08em"><tspan x="0" y="0">USER GOALS</tspan></text><text transform="translate(570.82 514.478) rotate(-90)" font-size="20" font-family="SegoeUI-Bold, Segoe UI" font-weight="700" letter-spacing="0.08em"><tspan x="-30.646" y="0">USER </tspan><tspan x="-73.786" y="27">EXPECTATION</tspan></text><text transform="translate(584.82 791.478) rotate(-90)" font-size="20" font-family="SegoeUI-Bold, Segoe UI" font-weight="700" letter-spacing="0.08em"><tspan x="-47.73" y="0">PROCESS</tspan></text><text transform="translate(570.82 1069.478) rotate(-90)" font-size="20" font-family="SegoeUI-Bold, Segoe UI" font-weight="700" letter-spacing="0.08em"><tspan x="-62.728" y="0">CUSTOMER </tspan><tspan x="-25.862" y="27">SAYS</tspan></text><text transform="translate(584.82 2177.478) rotate(-90)" font-size="20" font-family="SegoeUI-Bold, Segoe UI" font-weight="700" letter-spacing="0.08em"><tspan x="-31.843" y="0">IDEAS</tspan></text><text transform="translate(584.82 1623.478) rotate(-90)" font-size="20" font-family="SegoeUI-Bold, Segoe UI" font-weight="700" letter-spacing="0.08em"><tspan x="-57.778" y="0">PROBLEMS</tspan></text><text transform="translate(584.82 1900.478) rotate(-90)" font-size="20" font-family="SegoeUI-Bold, Segoe UI" font-weight="700" letter-spacing="0.08em"><tspan x="-65.222" y="0">EXPERIENCE</tspan></text><text transform="translate(584.82 1346.478) rotate(-90)" font-size="20" font-family="SegoeUI-Bold, Segoe UI" font-weight="700" letter-spacing="0.08em"><tspan x="-78.464" y="0">TOUCHPOINTS</tspan></text><g transform="translate(659 116)" fill="#f6f6f6" stroke="#c8c8c8" stroke-width="1"><rect width="306" height="246" stroke="none"/><rect x="0.5" y="0.5" width="305" height="245" fill="none"/></g><g transform="translate(659 392)" fill="#f6f6f6" stroke="#c8c8c8" stroke-width="1"><rect width="306" height="246" stroke="none"/><rect x="0.5" y="0.5" width="305" height="245" fill="none"/></g><g transform="translate(659 669)" fill="#f6f6f6" stroke="#c8c8c8" stroke-width="1"><rect width="306" height="246" stroke="none"/><rect x="0.5" y="0.5" width="305" height="245" fill="none"/></g><g transform="translate(659 946)" fill="#f6f6f6" stroke="#c8c8c8" stroke-width="1"><rect width="306" height="246" stroke="none"/><rect x="0.5" y="0.5" width="305" height="245" fill="none"/></g><g transform="translate(659 2054)" fill="#f6f6f6" stroke="#c8c8c8" stroke-width="1"><rect width="306" height="246" stroke="none"/><rect x="0.5" y="0.5" width="305" height="245" fill="none"/></g><g transform="translate(659 1500)" fill="#f6f6f6" stroke="#c8c8c8" stroke-width="1"><rect width="306" height="246" stroke="none"/><rect x="0.5" y="0.5" width="305" height="245" fill="none"/></g><g transform="translate(659 1223)" fill="#f6f6f6" stroke="#c8c8c8" stroke-width="1"><rect width="306" height="246" stroke="none"/><rect x="0.5" y="0.5" width="305" height="245" fill="none"/></g><g transform="translate(999 116)" fill="#f6f6f6" stroke="#c8c8c8" stroke-width="1"><rect width="306" height="246" stroke="none"/><rect x="0.5" y="0.5" width="305" height="245" fill="none"/></g><g transform="translate(999 392)" fill="#f6f6f6" stroke="#c8c8c8" stroke-width="1"><rect width="306" height="246" stroke="none"/><rect x="0.5" y="0.5" width="305" height="245" fill="none"/></g><g transform="translate(999 669)" fill="#f6f6f6" stroke="#c8c8c8" stroke-width="1"><rect width="306" height="246" stroke="none"/><rect x="0.5" y="0.5" width="305" height="245" fill="none"/></g><g transform="translate(999 946)" fill="#f6f6f6" stroke="#c8c8c8" stroke-width="1"><rect width="306" height="246" stroke="none"/><rect x="0.5" y="0.5" width="305" height="245" fill="none"/></g><g transform="translate(999 2054)" fill="#f6f6f6" stroke="#c8c8c8" stroke-width="1"><rect width="306" height="246" stroke="none"/><rect x="0.5" y="0.5" width="305" height="245" fill="none"/></g><g transform="translate(999 1500)" fill="#f6f6f6" stroke="#c8c8c8" stroke-width="1"><rect width="306" height="246" stroke="none"/><rect x="0.5" y="0.5" width="305" height="245" fill="none"/></g><g transform="translate(999 1223)" fill="#f6f6f6" stroke="#c8c8c8" stroke-width="1"><rect width="306" height="246" stroke="none"/><rect x="0.5" y="0.5" width="305" height="245" fill="none"/></g><g transform="translate(1337 116)" fill="#f6f6f6" stroke="#c8c8c8" stroke-width="1"><rect width="306" height="246" stroke="none"/><rect x="0.5" y="0.5" width="305" height="245" fill="none"/></g><g transform="translate(1337 392)" fill="#f6f6f6" stroke="#c8c8c8" stroke-width="1"><rect width="306" height="246" stroke="none"/><rect x="0.5" y="0.5" width="305" height="245" fill="none"/></g><g transform="translate(1337 669)" fill="#f6f6f6" stroke="#c8c8c8" stroke-width="1"><rect width="306" height="246" stroke="none"/><rect x="0.5" y="0.5" width="305" height="245" fill="none"/></g><g transform="translate(1337 946)" fill="#f6f6f6" stroke="#c8c8c8" stroke-width="1"><rect width="306" height="246" stroke="none"/><rect x="0.5" y="0.5" width="305" height="245" fill="none"/></g><g transform="translate(1337 2054)" fill="#f6f6f6" stroke="#c8c8c8" stroke-width="1"><rect width="306" height="246" stroke="none"/><rect x="0.5" y="0.5" width="305" height="245" fill="none"/></g><g transform="translate(1337 1500)" fill="#f6f6f6" stroke="#c8c8c8" stroke-width="1"><rect width="306" height="246" stroke="none"/><rect x="0.5" y="0.5" width="305" height="245" fill="none"/></g><g transform="translate(1337 1223)" fill="#f6f6f6" stroke="#c8c8c8" stroke-width="1"><rect width="306" height="246" stroke="none"/><rect x="0.5" y="0.5" width="305" height="245" fill="none"/></g><g transform="translate(1673 116)" fill="#f6f6f6" stroke="#c8c8c8" stroke-width="1"><rect width="306" height="246" stroke="none"/><rect x="0.5" y="0.5" width="305" height="245" fill="none"/></g><g transform="translate(1673 392)" fill="#f6f6f6" stroke="#c8c8c8" stroke-width="1"><rect width="306" height="246" stroke="none"/><rect x="0.5" y="0.5" width="305" height="245" fill="none"/></g><g transform="translate(1673 669)" fill="#f6f6f6" stroke="#c8c8c8" stroke-width="1"><rect width="306" height="246" stroke="none"/><rect x="0.5" y="0.5" width="305" height="245" fill="none"/></g><g transform="translate(1673 946)" fill="#f6f6f6" stroke="#c8c8c8" stroke-width="1"><rect width="306" height="246" stroke="none"/><rect x="0.5" y="0.5" width="305" height="245" fill="none"/></g><g transform="translate(1673 2054)" fill="#f6f6f6" stroke="#c8c8c8" stroke-width="1"><rect width="306" height="246" stroke="none"/><rect x="0.5" y="0.5" width="305" height="245" fill="none"/></g><g transform="translate(1673 1500)" fill="#f6f6f6" stroke="#c8c8c8" stroke-width="1"><rect width="306" height="246" stroke="none"/><rect x="0.5" y="0.5" width="305" height="245" fill="none"/></g><g transform="translate(1673 1223)" fill="#f6f6f6" stroke="#c8c8c8" stroke-width="1"><rect width="306" height="246" stroke="none"/><rect x="0.5" y="0.5" width="305" height="245" fill="none"/></g><g transform="translate(2346 116)" fill="#f6f6f6" stroke="#c8c8c8" stroke-width="1"><rect width="306" height="246" stroke="none"/><rect x="0.5" y="0.5" width="305" height="245" fill="none"/></g><g transform="translate(2346 392)" fill="#f6f6f6" stroke="#c8c8c8" stroke-width="1"><rect width="306" height="246" stroke="none"/><rect x="0.5" y="0.5" width="305" height="245" fill="none"/></g><g transform="translate(2346 669)" fill="#f6f6f6" stroke="#c8c8c8" stroke-width="1"><rect width="306" height="246" stroke="none"/><rect x="0.5" y="0.5" width="305" height="245" fill="none"/></g><g transform="translate(2346 946)" fill="#f6f6f6" stroke="#c8c8c8" stroke-width="1"><rect width="306" height="246" stroke="none"/><rect x="0.5" y="0.5" width="305" height="245" fill="none"/></g><g transform="translate(2346 2054)" fill="#f6f6f6" stroke="#c8c8c8" stroke-width="1"><rect width="306" height="246" stroke="none"/><rect x="0.5" y="0.5" width="305" height="245" fill="none"/></g><g transform="translate(2346 1500)" fill="#f6f6f6" stroke="#c8c8c8" stroke-width="1"><rect width="306" height="246" stroke="none"/><rect x="0.5" y="0.5" width="305" height="245" fill="none"/></g><g transform="translate(2346 1223)" fill="#f6f6f6" stroke="#c8c8c8" stroke-width="1"><rect width="306" height="246" stroke="none"/><rect x="0.5" y="0.5" width="305" height="245" fill="none"/></g><g transform="translate(2682 116)" fill="#f6f6f6" stroke="#c8c8c8" stroke-width="1"><rect width="306" height="246" stroke="none"/><rect x="0.5" y="0.5" width="305" height="245" fill="none"/></g><g transform="translate(2682 392)" fill="#f6f6f6" stroke="#c8c8c8" stroke-width="1"><rect width="306" height="246" stroke="none"/><rect x="0.5" y="0.5" width="305" height="245" fill="none"/></g><g transform="translate(2682 669)" fill="#f6f6f6" stroke="#c8c8c8" stroke-width="1"><rect width="306" height="246" stroke="none"/><rect x="0.5" y="0.5" width="305" height="245" fill="none"/></g><g transform="translate(2682 946)" fill="#f6f6f6" stroke="#c8c8c8" stroke-width="1"><rect width="306" height="246" stroke="none"/><rect x="0.5" y="0.5" width="305" height="245" fill="none"/></g><g transform="translate(2682 2054)" fill="#f6f6f6" stroke="#c8c8c8" stroke-width="1"><rect width="306" height="246" stroke="none"/><rect x="0.5" y="0.5" width="305" height="245" fill="none"/></g><g transform="translate(2682 1500)" fill="#f6f6f6" stroke="#c8c8c8" stroke-width="1"><rect width="306" height="246" stroke="none"/><rect x="0.5" y="0.5" width="305" height="245" fill="none"/></g><g transform="translate(2682 1223)" fill="#f6f6f6" stroke="#c8c8c8" stroke-width="1"><rect width="306" height="246" stroke="none"/><rect x="0.5" y="0.5" width="305" height="245" fill="none"/></g><text transform="translate(674 136)" font-size="20" font-family="SegoeUI, Segoe UI"><tspan x="0" y="22">Need to hire a candidate for a </tspan><tspan x="0" y="49">job vacancy. Decide what </tspan><tspan x="0" y="76">content to post for the job </tspan><tspan x="0" y="103">opening</tspan></text><text transform="translate(674 412)" font-size="20" font-family="SegoeUI, Segoe UI"><tspan x="0" y="22">Hiring manager is looking for </tspan><tspan x="0" y="49">a right candidate for the job </tspan><tspan x="0" y="76">opening and he don&apos;t want to </tspan><tspan x="0" y="103">spend much time in filtering </tspan><tspan x="0" y="130">for the right candidate</tspan></text><text transform="translate(90 362)" font-size="28" font-family="SegoeUI, Segoe UI" letter-spacing="0.044em"><tspan x="44.385" y="30">Middle age hiring </tspan><tspan x="57.588" y="67">manager who is </tspan><tspan x="9.298" y="104">struggling to hire right </tspan><tspan x="35.928" y="141">candidate for a job </tspan><tspan x="1.923" y="178">opening at his company </tspan><tspan x="34.662" y="215">but he is frustrated </tspan><tspan x="35.409" y="252">because he and his </tspan><tspan x="3.769" y="289">team has to go through </tspan><tspan x="30.779" y="326">a lot of profiles and </tspan><tspan x="9.783" y="363">evaluations to shortlist </tspan><tspan x="2.859" y="400">them. He hopes that his </tspan><tspan x="5.956" y="437">hiring process could be </tspan><tspan x="15.213" y="474">fast enough so he can </tspan><tspan x="5.601" y="511">work on other assigned </tspan><tspan x="130.329" y="548">tasks</tspan></text><text transform="translate(674 689)" font-size="20" font-family="SegoeUI, Segoe UI"><tspan x="0" y="22">Hiring manager wants to hire a </tspan><tspan x="0" y="49">right candidate so he opens </tspan><tspan x="0" y="76">up the website to start posting </tspan><tspan x="0" y="103">job details</tspan></text><text transform="translate(674 966)" font-size="20" font-family="SegoeUI, Segoe UI"><tspan x="0" y="22">I want a perfect candidate but </tspan><tspan x="0" y="49">I don&apos;t want to filter him out </tspan><tspan x="0" y="76">manually because it&apos;s a time </tspan><tspan x="0" y="103">consuming process</tspan></text><text transform="translate(676 1853)" font-size="30" font-family="SegoeUI-Semibold, Segoe UI" font-weight="600"><tspan x="51.627" y="32">UNCERTAIN, </tspan><tspan x="88.241" y="72">BORED</tspan></text><text transform="translate(1015 1853)" font-size="30" font-family="SegoeUI-Semibold, Segoe UI" font-weight="600"><tspan x="51.627" y="32">UNCERTAIN, </tspan><tspan x="59.757" y="72">CONFUSED</tspan></text><text transform="translate(1353 1853)" font-size="30" font-family="SegoeUI-Semibold, Segoe UI" font-weight="600"><tspan x="51.627" y="32">UNCERTAIN, </tspan><tspan x="59.757" y="72">CONFUSED</tspan></text><text transform="translate(2025 1853)" font-size="30" font-family="SegoeUI-Semibold, Segoe UI" font-weight="600"><tspan x="62.372" y="32">ANNOYED, </tspan><tspan x="59.757" y="72">CONFUSED</tspan></text><text transform="translate(2361 1853)" font-size="30" font-family="SegoeUI-Semibold, Segoe UI" font-weight="600"><tspan x="69.256" y="32">CURIOUS, </tspan><tspan x="46.17" y="72">MILD STRESS</tspan></text><text transform="translate(1689 1878)" font-size="30" font-family="SegoeUI-Semibold, Segoe UI" font-weight="600"><tspan x="78.99" y="32">EXCITED</tspan></text><text transform="translate(1014 136)" font-size="20" font-family="SegoeUI, Segoe UI"><tspan x="0" y="22">Create a job post which hiring </tspan><tspan x="0" y="49">manager need to publish </tspan><tspan x="0" y="76">online</tspan></text><text transform="translate(1014 412)" font-size="20" font-family="SegoeUI, Segoe UI"><tspan x="0" y="22">Hiring manager expects the </tspan><tspan x="0" y="49">job creation flow will be easy </tspan><tspan x="0" y="76">and intuitive where he can add </tspan><tspan x="0" y="103">job details and all the </tspan><tspan x="0" y="130">information related to that </tspan><tspan x="0" y="157">vaccancy</tspan></text><text transform="translate(1014 689)" font-size="20" font-family="SegoeUI, Segoe UI"><tspan x="0" y="22">Once hiring manager opens </tspan><tspan x="0" y="49">up the job creation wizard he </tspan><tspan x="0" y="76">start putting data in to the </tspan><tspan x="0" y="103">relevant field so candidate </tspan><tspan x="0" y="130">should be clear about the </tspan><tspan x="0" y="157">position</tspan></text><text transform="translate(1014 966)" font-size="20" font-family="SegoeUI, Segoe UI"><tspan x="0" y="22">I wonder how I will post the ad </tspan><tspan x="0" y="49">and share it on social media so </tspan><tspan x="0" y="76">it can reach to my right </tspan><tspan x="0" y="103">candidate?</tspan></text><text transform="translate(1014 2074)" font-size="20" font-family="SegoeUI, Segoe UI"><tspan x="0" y="22">There should be more options </tspan><tspan x="0" y="49">to define company and terms </tspan><tspan x="0" y="76">and condition in job ad so the </tspan><tspan x="0" y="103">candidate have clear picture </tspan><tspan x="0" y="130">where they are applying</tspan></text><text transform="translate(1014 1520)" font-size="20" font-family="SegoeUI, Segoe UI"><tspan x="0" y="22">It seems that there is not </tspan><tspan x="0" y="49">enough options to describe </tspan><tspan x="0" y="76">about the job and the </tspan><tspan x="0" y="103">company information</tspan></text><text transform="translate(1352 136)" font-size="20" font-family="SegoeUI, Segoe UI"><tspan x="0" y="22">Ask candidate about their </tspan><tspan x="0" y="49">personal information along </tspan><tspan x="0" y="76">with the short introduction </tspan><tspan x="0" y="103">video</tspan></text><text transform="translate(1352 412)" font-size="20" font-family="SegoeUI, Segoe UI"><tspan x="0" y="22">Hiring manager expects that </tspan><tspan x="0" y="49">he can design the personal </tspan><tspan x="0" y="76">page by himself so he can ask </tspan><tspan x="0" y="103">personal information from the </tspan><tspan x="0" y="130">candidate according to the </tspan><tspan x="0" y="157">requirements and GDPR</tspan></text><text transform="translate(1352 689)" font-size="20" font-family="SegoeUI, Segoe UI"><tspan x="0" y="22">Hiring manager then create a </tspan><tspan x="0" y="49">customized personal profile </tspan><tspan x="0" y="76">through profile builder with </tspan><tspan x="0" y="103">his required options for the </tspan><tspan x="0" y="130">candidate</tspan></text><text transform="translate(1352 966)" font-size="20" font-family="SegoeUI, Segoe UI"><tspan x="0" y="22">I wonder if I can plug and play </tspan><tspan x="0" y="49">profile components so I know </tspan><tspan x="0" y="76">what should I ask from the </tspan><tspan x="0" y="103">candidate at personal level</tspan></text><text transform="translate(1352 2074)" font-size="20" font-family="SegoeUI, Segoe UI"><tspan x="0" y="22">Make sure this profile can be </tspan><tspan x="0" y="49">completely plug and play type </tspan><tspan x="0" y="76">so hiring manager can ask </tspan><tspan x="0" y="103">relevant or customized type </tspan><tspan x="0" y="130">personal information</tspan></text><text transform="translate(1352 1520)" font-size="20" font-family="SegoeUI, Segoe UI"><tspan x="0" y="22">Asking candidate information </tspan><tspan x="0" y="49">is not aligned with GDPR </tspan><tspan x="0" y="76">compliance. We cannot </tspan><tspan x="0" y="103">remove any information from </tspan><tspan x="0" y="130">the form</tspan></text><text transform="translate(1688 136)" font-size="20" font-family="SegoeUI, Segoe UI"><tspan x="0" y="22">Create a technical test for </tspan><tspan x="0" y="49">candidate evaluation which he </tspan><tspan x="0" y="76">needs to do to qualify for the </tspan><tspan x="0" y="103">next stage</tspan></text><text transform="translate(1688 412)" font-size="20" font-family="SegoeUI, Segoe UI"><tspan x="0" y="22">Hiring manager expects that </tspan><tspan x="0" y="49">he can design online test and </tspan><tspan x="0" y="76">scores for the candidate </tspan><tspan x="0" y="103">accordingly</tspan></text><text transform="translate(1688 689)" font-size="20" font-family="SegoeUI, Segoe UI"><tspan x="0" y="22">He then create and design </tspan><tspan x="0" y="49">online test for the candidate </tspan><tspan x="0" y="76">asking relevant test questions. </tspan><tspan x="0" y="103">These questions are based on </tspan><tspan x="0" y="130">multiple choice questions and </tspan><tspan x="0" y="157">open ended type questions for </tspan><tspan x="0" y="184">candidate</tspan></text><text transform="translate(1688 966)" font-size="20" font-family="SegoeUI, Segoe UI"><tspan x="0" y="22">I wish that the test creation </tspan><tspan x="0" y="49">system will be easy to design </tspan><tspan x="0" y="76">so anyone could design a test </tspan><tspan x="0" y="103">in few minutes</tspan></text><text transform="translate(1688 2074)" font-size="20" font-family="SegoeUI, Segoe UI"><tspan x="0" y="22">Creating test should also plug </tspan><tspan x="0" y="49">and play so the admin can </tspan><tspan x="0" y="76">create pre-defined questions </tspan><tspan x="0" y="103">to add them while creating </tspan><tspan x="0" y="130">test</tspan></text><text transform="translate(1688 1520)" font-size="20" font-family="SegoeUI, Segoe UI"><tspan x="0" y="22">I can somehow create test for </tspan><tspan x="0" y="49">my candidates </tspan></text><text transform="translate(2361 136)" font-size="20" font-family="SegoeUI, Segoe UI"><tspan x="0" y="22">Evaluate the candidate on the </tspan><tspan x="0" y="49">basis of his test score. Test </tspan><tspan x="0" y="76">score total sum will equal to </tspan><tspan x="0" y="103">auto-score by system and </tspan><tspan x="0" y="130">manual score by reviewers</tspan></text><text transform="translate(2361 412)" font-size="20" font-family="SegoeUI, Segoe UI"><tspan x="0" y="22">Hiring manager expects that </tspan><tspan x="0" y="49">the evaluation system should </tspan><tspan x="0" y="76">be fast enough so that he can </tspan><tspan x="0" y="103">easily select the shortlisted </tspan><tspan x="0" y="130">candidate according to the </tspan><tspan x="0" y="157">criteria he created</tspan></text><text transform="translate(2361 689)" font-size="20" font-family="SegoeUI, Segoe UI"><tspan x="0" y="22">The system then score the </tspan><tspan x="0" y="49">candidate&apos;s multiple choice </tspan><tspan x="0" y="76">questions automatically as </tspan><tspan x="0" y="103">soon as he submits it and send </tspan><tspan x="0" y="130">the open ended questions to </tspan><tspan x="0" y="157">the assigned reviewers</tspan></text><text transform="translate(2361 966)" font-size="20" font-family="SegoeUI, Segoe UI"><tspan x="0" y="22">I wish that the system will </tspan><tspan x="0" y="49">evaluate the candidate&apos;s </tspan><tspan x="0" y="76">answers instantly and filters </tspan><tspan x="0" y="103" xml:space="preserve">out the best candidate  </tspan></text><text transform="translate(2361 2074)" font-size="20" font-family="SegoeUI, Segoe UI"><tspan x="0" y="22">The system should calculate </tspan><tspan x="0" y="49">the predefined score on the </tspan><tspan x="0" y="76">basis of answers and should </tspan><tspan x="0" y="103">compile a rapid report for the </tspan><tspan x="0" y="130">reveiwers</tspan></text><text transform="translate(2361 1520)" font-size="20" font-family="SegoeUI, Segoe UI"><tspan x="0" y="22">My system is scoring in wrong </tspan><tspan x="0" y="49">format and I cannot find all </tspan><tspan x="0" y="76">the scores he earned</tspan></text><text transform="translate(2697 136)" font-size="20" font-family="SegoeUI, Segoe UI"><tspan x="0" y="22">Allow candidate to pass </tspan><tspan x="0" y="49">through designed hiring </tspan><tspan x="0" y="76">stages to reach hired stage</tspan></text><text transform="translate(2697 412)" font-size="20" font-family="SegoeUI, Segoe UI"><tspan x="0" y="22">Hiring manager expect that his </tspan><tspan x="0" y="49">team should easily move </tspan><tspan x="0" y="76">candidate to the defined </tspan><tspan x="0" y="103">hiring flows for fast and easy </tspan><tspan x="0" y="130">onboarding</tspan></text><text transform="translate(2697 689)" font-size="20" font-family="SegoeUI, Segoe UI"><tspan x="0" y="22">Then the hiring manager or </tspan><tspan x="0" y="49">other team member put the </tspan><tspan x="0" y="76">candidates to the hiring stages </tspan><tspan x="0" y="103">so all the members should see </tspan><tspan x="0" y="130">the candidate position after </tspan><tspan x="0" y="157">shortlisted by the system</tspan></text><text transform="translate(2697 966)" font-size="20" font-family="SegoeUI, Segoe UI"><tspan x="0" y="22">I imagine a comprehensive </tspan><tspan x="0" y="49">hiring stages system where my </tspan><tspan x="0" y="76">members can easily manage </tspan><tspan x="0" y="103">their candidate&apos;s onboarding </tspan><tspan x="0" y="130">process</tspan></text><text transform="translate(2697 2074)" font-size="20" font-family="SegoeUI, Segoe UI"><tspan x="0" y="22">Members of the company can </tspan><tspan x="0" y="49">move the candidate easily in </tspan><tspan x="0" y="76">their hiring flow so all the </tspan><tspan x="0" y="103">relevant members can see the </tspan><tspan x="0" y="130">candidate hiring and </tspan><tspan x="0" y="157">onboarding process</tspan></text><g transform="translate(180 10)"><path d="M.5,379.5V133.29H137.02" transform="translate(327.5 -27.5)" fill="none" stroke="#000" stroke-miterlimit="10" stroke-width="1" opacity="0.26"/><path d="M.5,133.29H137.02" transform="translate(327.5 218.5)" fill="none" stroke="#000" stroke-miterlimit="10" stroke-width="1" opacity="0.26"/></g><g transform="translate(180 286)"><path d="M.5,379.5V133.29H137.02" transform="translate(327.5 -27.5)" fill="none" stroke="#000" stroke-miterlimit="10" stroke-width="1" opacity="0.26"/><path d="M.5,133.29H137.02" transform="translate(327.5 218.5)" fill="none" stroke="#000" stroke-miterlimit="10" stroke-width="1" opacity="0.26"/></g><g transform="translate(180 563)"><path d="M.5,379.5V133.29H137.02" transform="translate(327.5 -27.5)" fill="none" stroke="#000" stroke-miterlimit="10" stroke-width="1" opacity="0.26"/><path d="M.5,133.29H137.02" transform="translate(327.5 218.5)" fill="none" stroke="#000" stroke-miterlimit="10" stroke-width="1" opacity="0.26"/></g><g transform="translate(180 840)"><path d="M.5,379.5V133.29H137.02" transform="translate(327.5 -27.5)" fill="none" stroke="#000" stroke-miterlimit="10" stroke-width="1" opacity="0.26"/><path d="M.5,133.29H137.02" transform="translate(327.5 218.5)" fill="none" stroke="#000" stroke-miterlimit="10" stroke-width="1" opacity="0.26"/></g><g transform="translate(180 1948)"><path d="M.5,379.5V133.29H137.02" transform="translate(327.5 -27.5)" fill="none" stroke="#000" stroke-miterlimit="10" stroke-width="1" opacity="0.26"/><path d="M.5,133.29H137.02" transform="translate(327.5 218.5)" fill="none" stroke="#000" stroke-miterlimit="10" stroke-width="1" opacity="0.26"/></g><g transform="translate(180 1394)"><path d="M.5,379.5V133.29H137.02" transform="translate(327.5 -27.5)" fill="none" stroke="#000" stroke-miterlimit="10" stroke-width="1" opacity="0.26"/><path d="M.5,133.29H137.02" transform="translate(327.5 218.5)" fill="none" stroke="#000" stroke-miterlimit="10" stroke-width="1" opacity="0.26"/></g><g transform="translate(180 1671)"><path d="M.5,379.5V133.29H137.02" transform="translate(327.5 -27.5)" fill="none" stroke="#000" stroke-miterlimit="10" stroke-width="1" opacity="0.26"/><path d="M.5,133.29H137.02" transform="translate(327.5 218.5)" fill="none" stroke="#000" stroke-miterlimit="10" stroke-width="1" opacity="0.26"/></g><g transform="translate(180 1117)"><path d="M.5,379.5V133.29H137.02" transform="translate(327.5 -27.5)" fill="none" stroke="#000" stroke-miterlimit="10" stroke-width="1" opacity="0.26"/><path d="M.5,133.29H137.02" transform="translate(327.5 218.5)" fill="none" stroke="#000" stroke-miterlimit="10" stroke-width="1" opacity="0.26"/></g><path d="M902,60.79H583l17.25,25.26L583,111.3H902l17.25-25.25Z" transform="translate(1410.5 -17.5)" fill="#2e2e2e"/><text transform="translate(2044.63 73.9)" fill="#fff" font-size="18" font-family="SegoeUI-Bold, Segoe UI" font-weight="700" letter-spacing="0.1em"><tspan x="0" y="0">CREATE HIRING FLOWS</tspan></text><g transform="translate(2009 116)" fill="#f6f6f6" stroke="#c8c8c8" stroke-width="1"><rect width="306" height="246" stroke="none"/><rect x="0.5" y="0.5" width="305" height="245" fill="none"/></g><g transform="translate(2009 392)" fill="#f6f6f6" stroke="#c8c8c8" stroke-width="1"><rect width="306" height="246" stroke="none"/><rect x="0.5" y="0.5" width="305" height="245" fill="none"/></g><g transform="translate(2009 669)" fill="#f6f6f6" stroke="#c8c8c8" stroke-width="1"><rect width="306" height="246" stroke="none"/><rect x="0.5" y="0.5" width="305" height="245" fill="none"/></g><g transform="translate(2009 946)" fill="#f6f6f6" stroke="#c8c8c8" stroke-width="1"><rect width="306" height="246" stroke="none"/><rect x="0.5" y="0.5" width="305" height="245" fill="none"/></g><g transform="translate(2009 2054)" fill="#f6f6f6" stroke="#c8c8c8" stroke-width="1"><rect width="306" height="246" stroke="none"/><rect x="0.5" y="0.5" width="305" height="245" fill="none"/></g><g transform="translate(2009 1500)" fill="#f6f6f6" stroke="#c8c8c8" stroke-width="1"><rect width="306" height="246" stroke="none"/><rect x="0.5" y="0.5" width="305" height="245" fill="none"/></g><g transform="translate(2009 1223)" fill="#f6f6f6" stroke="#c8c8c8" stroke-width="1"><rect width="306" height="246" stroke="none"/><rect x="0.5" y="0.5" width="305" height="245" fill="none"/></g><text transform="translate(2024 136)" font-size="20" font-family="SegoeUI, Segoe UI"><tspan x="0" y="22">Define hiring flows for the </tspan><tspan x="0" y="49">company team members for </tspan><tspan x="0" y="76">the relevant job vacancy</tspan></text><text transform="translate(2024 412)" font-size="20" font-family="SegoeUI, Segoe UI"><tspan x="0" y="22">Hiring manager expects to </tspan><tspan x="0" y="49">configure and design his own </tspan><tspan x="0" y="76">hiring flow for the his team so </tspan><tspan x="0" y="103">the members could use that </tspan><tspan x="0" y="130">flow to onboard candidate</tspan></text><text transform="translate(2024 689)" font-size="20" font-family="SegoeUI, Segoe UI"><tspan x="0" y="22">He then define hiring flows for </tspan><tspan x="0" y="49">his team who are responsible </tspan><tspan x="0" y="76">for taking interviews from the </tspan><tspan x="0" y="103">candidates on different hiring </tspan><tspan x="0" y="130">stages</tspan></text><text transform="translate(2024 966)" font-size="20" font-family="SegoeUI, Segoe UI"><tspan x="0" y="22">I wonder if I define a hiring </tspan><tspan x="0" y="49">flow for my team so all my </tspan><tspan x="0" y="76">assigned members can use </tspan><tspan x="0" y="103">that flow to hire a candidate</tspan></text><text transform="translate(2024 2074)" font-size="20" font-family="SegoeUI, Segoe UI"><tspan x="0" y="22">Hiring manager can create </tspan><tspan x="0" y="49">hiring flows on the go so each </tspan><tspan x="0" y="76">job can have different sets of </tspan><tspan x="0" y="103">hiring flows for better hiring </tspan><tspan x="0" y="130">process</tspan></text><text transform="translate(2024 1520)" font-size="20" font-family="SegoeUI, Segoe UI"><tspan x="0" y="22">I really can&apos;t properly defined </tspan><tspan x="0" y="49">my hiring flows for my team</tspan></text><g transform="translate(180 10)"><g transform="translate(860.746 1287.895)"><path d="M0,0H96.21V96.21H0Z" fill="none"/><path d="M10.018,55.114h64.14v-44.1H10.018ZM46.1,63.131v8.018H62.131v8.017H22.044V71.149H38.079V63.131H5.977A4,4,0,0,1,2,59.094V7.037A4.036,4.036,0,0,1,5.977,3H78.2a4,4,0,0,1,3.977,4.037V59.094A4.036,4.036,0,0,1,78.2,63.131Z" transform="translate(6.017 9.026)"/></g><g transform="translate(986.791 1287.895)"><path d="M0,0H96.21V96.21H0Z" fill="none"/><path d="M12.017,10.017v64.14h48.1V10.017ZM8.009,2H64.131A4.009,4.009,0,0,1,68.14,6.009V78.166a4.009,4.009,0,0,1-4.009,4.009H8.009A4.009,4.009,0,0,1,4,78.166V6.009A4.009,4.009,0,0,1,8.009,2ZM36.07,62.131a4.009,4.009,0,1,1-4.009,4.009A4.009,4.009,0,0,1,36.07,62.131Z" transform="translate(12.035 6.017)"/></g></g><g transform="translate(517 10)"><g transform="translate(860.746 1287.895)"><path d="M0,0H96.21V96.21H0Z" fill="none"/><path d="M10.018,55.114h64.14v-44.1H10.018ZM46.1,63.131v8.018H62.131v8.017H22.044V71.149H38.079V63.131H5.977A4,4,0,0,1,2,59.094V7.037A4.036,4.036,0,0,1,5.977,3H78.2a4,4,0,0,1,3.977,4.037V59.094A4.036,4.036,0,0,1,78.2,63.131Z" transform="translate(6.017 9.026)"/></g><g transform="translate(986.791 1287.895)"><path d="M0,0H96.21V96.21H0Z" fill="none"/><path d="M12.017,10.017v64.14h48.1V10.017ZM8.009,2H64.131A4.009,4.009,0,0,1,68.14,6.009V78.166a4.009,4.009,0,0,1-4.009,4.009H8.009A4.009,4.009,0,0,1,4,78.166V6.009A4.009,4.009,0,0,1,8.009,2ZM36.07,62.131a4.009,4.009,0,1,1-4.009,4.009A4.009,4.009,0,0,1,36.07,62.131Z" transform="translate(12.035 6.017)"/></g></g><g transform="translate(854 10)"><g transform="translate(860.746 1287.895)"><path d="M0,0H96.21V96.21H0Z" fill="none"/><path d="M10.018,55.114h64.14v-44.1H10.018ZM46.1,63.131v8.018H62.131v8.017H22.044V71.149H38.079V63.131H5.977A4,4,0,0,1,2,59.094V7.037A4.036,4.036,0,0,1,5.977,3H78.2a4,4,0,0,1,3.977,4.037V59.094A4.036,4.036,0,0,1,78.2,63.131Z" transform="translate(6.017 9.026)"/></g><g transform="translate(986.791 1287.895)"><path d="M0,0H96.21V96.21H0Z" fill="none"/><path d="M12.017,10.017v64.14h48.1V10.017ZM8.009,2H64.131A4.009,4.009,0,0,1,68.14,6.009V78.166a4.009,4.009,0,0,1-4.009,4.009H8.009A4.009,4.009,0,0,1,4,78.166V6.009A4.009,4.009,0,0,1,8.009,2ZM36.07,62.131a4.009,4.009,0,1,1-4.009,4.009A4.009,4.009,0,0,1,36.07,62.131Z" transform="translate(12.035 6.017)"/></g></g><g transform="translate(1190 10)"><g transform="translate(860.746 1287.895)"><path d="M0,0H96.21V96.21H0Z" fill="none"/><path d="M10.018,55.114h64.14v-44.1H10.018ZM46.1,63.131v8.018H62.131v8.017H22.044V71.149H38.079V63.131H5.977A4,4,0,0,1,2,59.094V7.037A4.036,4.036,0,0,1,5.977,3H78.2a4,4,0,0,1,3.977,4.037V59.094A4.036,4.036,0,0,1,78.2,63.131Z" transform="translate(6.017 9.026)"/></g><g transform="translate(986.791 1287.895)"><path d="M0,0H96.21V96.21H0Z" fill="none"/><path d="M12.017,10.017v64.14h48.1V10.017ZM8.009,2H64.131A4.009,4.009,0,0,1,68.14,6.009V78.166a4.009,4.009,0,0,1-4.009,4.009H8.009A4.009,4.009,0,0,1,4,78.166V6.009A4.009,4.009,0,0,1,8.009,2ZM36.07,62.131a4.009,4.009,0,1,1-4.009,4.009A4.009,4.009,0,0,1,36.07,62.131Z" transform="translate(12.035 6.017)"/></g></g><g transform="translate(1527 10)"><g transform="translate(860.746 1287.895)"><path d="M0,0H96.21V96.21H0Z" fill="none"/><path d="M10.018,55.114h64.14v-44.1H10.018ZM46.1,63.131v8.018H62.131v8.017H22.044V71.149H38.079V63.131H5.977A4,4,0,0,1,2,59.094V7.037A4.036,4.036,0,0,1,5.977,3H78.2a4,4,0,0,1,3.977,4.037V59.094A4.036,4.036,0,0,1,78.2,63.131Z" transform="translate(6.017 9.026)"/></g><g transform="translate(986.791 1287.895)"><path d="M0,0H96.21V96.21H0Z" fill="none"/><path d="M12.017,10.017v64.14h48.1V10.017ZM8.009,2H64.131A4.009,4.009,0,0,1,68.14,6.009V78.166a4.009,4.009,0,0,1-4.009,4.009H8.009A4.009,4.009,0,0,1,4,78.166V6.009A4.009,4.009,0,0,1,8.009,2ZM36.07,62.131a4.009,4.009,0,1,1-4.009,4.009A4.009,4.009,0,0,1,36.07,62.131Z" transform="translate(12.035 6.017)"/></g></g><g transform="translate(1863 10)"><g transform="translate(860.746 1287.895)"><path d="M0,0H96.21V96.21H0Z" fill="none"/><path d="M10.018,55.114h64.14v-44.1H10.018ZM46.1,63.131v8.018H62.131v8.017H22.044V71.149H38.079V63.131H5.977A4,4,0,0,1,2,59.094V7.037A4.036,4.036,0,0,1,5.977,3H78.2a4,4,0,0,1,3.977,4.037V59.094A4.036,4.036,0,0,1,78.2,63.131Z" transform="translate(6.017 9.026)"/></g><g transform="translate(986.791 1287.895)"><path d="M0,0H96.21V96.21H0Z" fill="none"/><path d="M12.017,10.017v64.14h48.1V10.017ZM8.009,2H64.131A4.009,4.009,0,0,1,68.14,6.009V78.166a4.009,4.009,0,0,1-4.009,4.009H8.009A4.009,4.009,0,0,1,4,78.166V6.009A4.009,4.009,0,0,1,8.009,2ZM36.07,62.131a4.009,4.009,0,1,1-4.009,4.009A4.009,4.009,0,0,1,36.07,62.131Z" transform="translate(12.035 6.017)"/></g></g><text transform="translate(3055.97 73.9)" fill="#fff" font-size="18" font-family="SegoeUI-Bold, Segoe UI" font-weight="700" letter-spacing="0.1em"><tspan x="0" y="0">INTERVIEW</tspan></text><g transform="translate(3021 116)" fill="#f6f6f6" stroke="#c8c8c8" stroke-width="1"><rect width="306" height="246" stroke="none"/><rect x="0.5" y="0.5" width="305" height="245" fill="none"/></g><g transform="translate(3021 392)" fill="#f6f6f6" stroke="#c8c8c8" stroke-width="1"><rect width="306" height="246" stroke="none"/><rect x="0.5" y="0.5" width="305" height="245" fill="none"/></g><g transform="translate(3021 669)" fill="#f6f6f6" stroke="#c8c8c8" stroke-width="1"><rect width="306" height="246" stroke="none"/><rect x="0.5" y="0.5" width="305" height="245" fill="none"/></g><g transform="translate(3021 946)" fill="#f6f6f6" stroke="#c8c8c8" stroke-width="1"><rect width="306" height="246" stroke="none"/><rect x="0.5" y="0.5" width="305" height="245" fill="none"/></g><g transform="translate(3021 2054)" fill="#f6f6f6" stroke="#c8c8c8" stroke-width="1"><rect width="306" height="246" stroke="none"/><rect x="0.5" y="0.5" width="305" height="245" fill="none"/></g><g transform="translate(3021 1500)" fill="#f6f6f6" stroke="#c8c8c8" stroke-width="1"><rect width="306" height="246" stroke="none"/><rect x="0.5" y="0.5" width="305" height="245" fill="none"/></g><g transform="translate(3021 1223)" fill="#f6f6f6" stroke="#c8c8c8" stroke-width="1"><rect width="306" height="246" stroke="none"/><rect x="0.5" y="0.5" width="305" height="245" fill="none"/></g><text transform="translate(3031 1853)" font-size="30" font-family="SegoeUI-Semibold, Segoe UI" font-weight="600"><tspan x="87.047" y="32">HAPPY,</tspan><tspan x="68.077" y="72">SATISFIED</tspan></text><text transform="translate(3036 136)" font-size="20" font-family="SegoeUI, Segoe UI"><tspan x="0" y="22">Schedule and invite candidate </tspan><tspan x="0" y="49">for the video interview if he is </tspan><tspan x="0" y="76">shortlisted</tspan></text><text transform="translate(3036 412)" font-size="20" font-family="SegoeUI, Segoe UI"><tspan x="0" y="22">Hiring manager expects that </tspan><tspan x="0" y="49">the interview stage should </tspan><tspan x="0" y="76">support video interview so the </tspan><tspan x="0" y="103">candidate can easily invited for </tspan><tspan x="0" y="130">the interview with his team </tspan><tspan x="0" y="157">members</tspan></text><text transform="translate(3036 689)" font-size="20" font-family="SegoeUI, Segoe UI"><tspan x="0" y="22">The relevant team member </tspan><tspan x="0" y="49">then invite the shortlisted </tspan><tspan x="0" y="76">candidate on the basis of </tspan><tspan x="0" y="103">score he achieved via video </tspan><tspan x="0" y="130">interview</tspan></text><text transform="translate(3036 966)" font-size="20" font-family="SegoeUI, Segoe UI"><tspan x="0" y="22">I assume that scheduling a </tspan><tspan x="0" y="49">video interview would be fast </tspan><tspan x="0" y="76">and smooth</tspan></text><text transform="translate(3036 2074)" font-size="20" font-family="SegoeUI, Segoe UI"><tspan x="0" y="22">Video interview should have </tspan><tspan x="0" y="49">scheduler which can schedule </tspan><tspan x="0" y="76">meetings and generate alerts </tspan><tspan x="0" y="103">at meeting time</tspan></text><text transform="translate(3036 1520)" font-size="20" font-family="SegoeUI, Segoe UI"><tspan x="0" y="22">I can interview my candidate </tspan><tspan x="0" y="49">through video from the </tspan><tspan x="0" y="76">system</tspan></text><g transform="translate(2202 -38)"><g transform="translate(860.746 1287.895)"><path d="M0,0H96.21V96.21H0Z" fill="none"/><path d="M10.018,55.114h64.14v-44.1H10.018ZM46.1,63.131v8.018H62.131v8.017H22.044V71.149H38.079V63.131H5.977A4,4,0,0,1,2,59.094V7.037A4.036,4.036,0,0,1,5.977,3H78.2a4,4,0,0,1,3.977,4.037V59.094A4.036,4.036,0,0,1,78.2,63.131Z" transform="translate(6.017 9.026)"/></g><g transform="translate(986.791 1287.895)"><path d="M0,0H96.21V96.21H0Z" fill="none"/><path d="M12.017,10.017v64.14h48.1V10.017ZM8.009,2H64.131A4.009,4.009,0,0,1,68.14,6.009V78.166a4.009,4.009,0,0,1-4.009,4.009H8.009A4.009,4.009,0,0,1,4,78.166V6.009A4.009,4.009,0,0,1,8.009,2ZM36.07,62.131a4.009,4.009,0,1,1-4.009,4.009A4.009,4.009,0,0,1,36.07,62.131Z" transform="translate(12.035 6.017)"/></g></g><g transform="translate(3136.746 1357.745)"><path d="M0,0H73.557V73.557H0Z" fill="none"/><path d="M23.389,62.3V59.018A21.46,21.46,0,0,1,5,37.778V22.454a21.454,21.454,0,1,1,42.908,0V37.778a21.46,21.46,0,0,1-18.389,21.24V62.3H41.778v6.13H11.13V62.3ZM26.454,7.13A15.324,15.324,0,0,0,11.13,22.454V37.778a15.324,15.324,0,0,0,30.649,0V22.454A15.324,15.324,0,0,0,26.454,7.13Zm0,18.389a3.065,3.065,0,1,0-3.065-3.065A3.065,3.065,0,0,0,26.454,25.519Zm0,6.13a9.195,9.195,0,1,1,9.195-9.195A9.195,9.195,0,0,1,26.454,31.649Z" transform="translate(10.324 2.065)"/></g><g transform="translate(-19)"><g transform="translate(162 43)" fill="#fff" stroke="#1e1e1e" stroke-width="6"><circle cx="110.5" cy="110.5" r="110.5" stroke="none"/><circle cx="110.5" cy="110.5" r="107.5" fill="none"/></g><g transform="translate(213.219 94.219)"><path d="M0,0H119.562V119.562H0Z" fill="none"/><path d="M4,105.617a39.854,39.854,0,1,1,79.708,0H73.745a29.891,29.891,0,0,0-59.781,0ZM43.854,60.781A29.891,29.891,0,1,1,73.745,30.891,29.882,29.882,0,0,1,43.854,60.781Zm0-9.964A19.927,19.927,0,1,0,23.927,30.891,19.922,19.922,0,0,0,43.854,50.818Z" transform="translate(15.927 3.982)" fill="#1e1e1e"/></g></g></g></svg>